<svg xmlns="http://www.w3.org/2000/svg" width="128" height="128">
<path fill="#0063dc" stroke="none" d="M 64.504461,16.817487 C 38.168536,17.488304 16.999778,39.17825 16.999778,65.787131 C 16.999778,84.014679 26.943418,99.898404 41.666404,108.32951 C 37.617837,101.19225 35.285462,92.947102 35.285462,84.150747 C 35.285462,57.119498 57.130753,35.181103 84.047286,35.181103 C 92.813625,35.181103 101.03145,37.517116 108.14248,41.589241 C 99.748559,26.798284 83.915678,16.817487 65.761602,16.817487 C 65.341032,16.817487 64.922491,16.806836 64.504461,16.817487 z" />
<path fill="#ff0084" stroke="none" d="M 94.809723,47.321192 C 97.715396,52.419557 99.386031,58.317585 99.386031,64.60187 C 99.386031,83.90596 83.71894,99.573047 64.414849,99.573047 C 58.127778,99.573047 52.234085,97.891152 47.134167,94.98308 C 53.153275,105.54919 64.506779,112.68725 77.529041,112.68725 C 96.833137,112.68725 112.50022,97.020162 112.50022,77.716061 C 112.50022,64.699042 105.36882,53.342179 94.809723,47.321192 z" />
</svg>
